<svg xmlns="http://www.w3.org/2000/svg" viewBox="0 0 1200 800" role="img" aria-label="Corporate website mockup">
  <defs>
    <linearGradient id="bg" x1="0" y1="0" x2="1" y2="1">
      <stop offset="0" stop-color="#172554"/>
      <stop offset="1" stop-color="#1d4ed8"/>
    </linearGradient>
    <linearGradient id="acc" x1="0" y1="0" x2="1" y2="0">
      <stop offset="0" stop-color="#f97316"/>
      <stop offset="1" stop-color="#fb923c"/>
    </linearGradient>
  </defs>
  <rect width="1200" height="800" fill="url(#bg)"/>
  <circle cx="1080" cy="110" r="200" fill="#3b82f6" opacity="0.22"/>
  <circle cx="110" cy="720" r="220" fill="#f97316" opacity="0.12"/>
  <rect x="150" y="120" width="900" height="580" rx="20" fill="#ffffff" opacity="0.97"/>
  <rect x="150" y="120" width="900" height="70" rx="20" fill="#f8fafc"/>
  <rect x="180" y="138" width="36" height="36" rx="8" fill="#1e3a8a"/>
  <path d="M194 152 l8 -6 8 6v10h-16z" fill="#f97316"/>
  <rect x="240" y="146" width="90" height="12" rx="6" fill="#1e3a8a"/>
  <rect x="620" y="146" width="50" height="10" rx="5" fill="#64748b"/>
  <rect x="686" y="146" width="50" height="10" rx="5" fill="#64748b"/>
  <rect x="752" y="146" width="50" height="10" rx="5" fill="#64748b"/>
  <rect x="820" y="146" width="50" height="10" rx="5" fill="#64748b"/>
  <rect x="900" y="140" width="110" height="28" rx="14" fill="url(#acc)"/>
  <rect x="180" y="230" width="360" height="22" rx="11" fill="#0f172a"/>
  <rect x="180" y="268" width="300" height="14" rx="7" fill="#64748b"/>
  <rect x="180" y="296" width="260" height="14" rx="7" fill="#cbd5e1"/>
  <rect x="180" y="350" width="130" height="40" rx="20" fill="url(#acc)"/>
  <rect x="330" y="350" width="130" height="40" rx="20" fill="#e0f2fe"/>
  <rect x="620" y="230" width="380" height="190" rx="12" fill="#eff6ff"/>
  <rect x="640" y="248" width="160" height="12" rx="6" fill="#93c5fd"/>
  <rect x="640" y="276" width="120" height="12" rx="6" fill="#c7d2fe"/>
  <rect x="640" y="330" width="300" height="12" rx="6" fill="#e2e8f0"/>
  <rect x="640" y="356" width="260" height="12" rx="6" fill="#e2e8f0"/>
  <rect x="180" y="450" width="260" height="180" rx="12" fill="#f8fafc"/>
  <rect x="180" y="600" width="260" height="12" rx="6" fill="#e2e8f0"/>
  <rect x="470" y="450" width="260" height="180" rx="12" fill="#f8fafc"/>
  <rect x="470" y="600" width="260" height="12" rx="6" fill="#e2e8f0"/>
  <rect x="760" y="450" width="260" height="180" rx="12" fill="#f8fafc"/>
  <rect x="760" y="600" width="260" height="12" rx="6" fill="#e2e8f0"/>
</svg>
