<svg xmlns="http://www.w3.org/2000/svg" viewBox="0 0 1200 800" role="img" aria-label="Social media campaign dashboard">
  <defs>
    <linearGradient id="bg" x1="0" y1="1" x2="1" y2="0">
      <stop offset="0" stop-color="#fff7ed"/>
      <stop offset="1" stop-color="#ffe4e6"/>
    </linearGradient>
    <linearGradient id="acc" x1="0" y1="0" x2="1" y2="0">
      <stop offset="0" stop-color="#f97316"/>
      <stop offset="1" stop-color="#f43f5e"/>
    </linearGradient>
  </defs>
  <rect width="1200" height="800" fill="url(#bg)"/>
  <circle cx="1100" cy="100" r="190" fill="#fb923c" opacity="0.15"/>
  <circle cx="100" cy="720" r="210" fill="#f43f5e" opacity="0.1"/>
  <rect x="110" y="130" width="300" height="300" rx="22" fill="#ffffff" opacity="0.95"/>
  <circle cx="160" cy="180" r="26" fill="#f97316" opacity="0.85"/>
  <rect x="200" y="168" width="120" height="12" rx="6" fill="#334155"/>
  <rect x="200" y="192" width="80" height="10" rx="5" fill="#94a3b8"/>
  <rect x="140" y="240" width="240" height="120" rx="10" fill="#ffedd5"/>
  <circle cx="182" cy="330" r="24" fill="#fb923c" opacity="0.9"/>
  <rect x="214" y="318" width="120" height="12" rx="6" fill="#f97316" opacity="0.7"/>
  <rect x="214" y="342" width="90" height="10" rx="5" fill="#fdba74"/>
  <rect x="140" y="388" width="70" height="10" rx="5" fill="#cbd5e1"/>
  <rect x="300" y="388" width="60" height="10" rx="5" fill="#cbd5e1"/>
  <rect x="450" y="130" width="300" height="300" rx="22" fill="#ffffff" opacity="0.95"/>
  <circle cx="500" cy="180" r="26" fill="#2563eb" opacity="0.85"/>
  <rect x="540" y="168" width="120" height="12" rx="6" fill="#334155"/>
  <rect x="540" y="192" width="80" height="10" rx="5" fill="#94a3b8"/>
  <rect x="480" y="240" width="240" height="120" rx="10" fill="#eff6ff"/>
  <rect x="510" y="270" width="120" height="12" rx="6" fill="#3b82f6" opacity="0.8"/>
  <rect x="510" y="296" width="180" height="10" rx="5" fill="#93c5fd"/>
  <rect x="480" y="388" width="70" height="10" rx="5" fill="#cbd5e1"/>
  <rect x="640" y="388" width="60" height="10" rx="5" fill="#cbd5e1"/>
  <rect x="790" y="130" width="300" height="300" rx="22" fill="#ffffff" opacity="0.95"/>
  <circle cx="840" cy="180" r="26" fill="#059669" opacity="0.85"/>
  <rect x="880" y="168" width="120" height="12" rx="6" fill="#334155"/>
  <rect x="880" y="192" width="80" height="10" rx="5" fill="#94a3b8"/>
  <rect x="820" y="240" width="240" height="120" rx="10" fill="#ecfdf5"/>
  <rect x="850" y="270" width="120" height="12" rx="6" fill="#10b981" opacity="0.8"/>
  <rect x="850" y="296" width="180" height="10" rx="5" fill="#6ee7b7"/>
  <rect x="820" y="388" width="70" height="10" rx="5" fill="#cbd5e1"/>
  <rect x="980" y="388" width="60" height="10" rx="5" fill="#cbd5e1"/>
  <rect x="110" y="500" width="980" height="200" rx="22" fill="#ffffff" opacity="0.95"/>
  <rect x="150" y="540" width="200" height="16" rx="8" fill="#0f172a"/>
  <path d="M150 660 C 250 590, 320 640, 420 570 S 560 620, 660 540 S 800 590, 900 520" fill="none" stroke="#f97316" stroke-width="7" stroke-linecap="round"/>
  <path d="M150 660 C 250 610, 320 660, 420 600 S 560 645, 660 580 S 800 620, 900 560" fill="none" stroke="#2563eb" stroke-width="7" stroke-linecap="round" stroke-dasharray="1 14"/>
  <rect x="150" y="690" width="70" height="12" rx="6" fill="#f97316" opacity="0.8"/>
  <rect x="240" y="690" width="70" height="12" rx="6" fill="#2563eb" opacity="0.8"/>
  <rect x="940" y="540" width="100" height="40" rx="20" fill="url(#acc)"/>
</svg>
